mtllib box.mtl
v -552.8 0.0   0.0   
v   0.0 0.0   0.0
v   0.0 0.0 -559.2
v -549.6 0.0 -559.2

v -556.0 548.8 0.0   
v -556.0 548.8 -559.2
v   0.0 548.8 -559.2
v   0.0 548.8 0.0

v -549.6   0.0 -559.2 
v   0.0   0.0 -559.2
v   0.0 548.8 -559.2
v -556.0 548.8 -559.2
v 0.0   0.0 -559.2   
v 0.0   0.0   0.0
v 0.0 548.8   0.0
v 0.0 548.8 -559.2
v -552.8   0.0   0.0 
v -549.6   0.0 -559.2
v -556.0 548.8 -559.2
v -556.0 548.8   0.0
v -130.0 165.0  -65.0 
v  -82.0 165.0 -225.0
v -240.0 165.0 -272.0
v -290.0 165.0 -114.0
v -290.0   0.0 -114.0
v -290.0 165.0 -114.0
v -240.0 165.0 -272.0
v -240.0   0.0 -272.0
v -130.0   0.0  -65.0
v -130.0 165.0  -65.0
v -290.0 165.0 -114.0
v -290.0   0.0 -114.0
v  -82.0   0.0 -225.0
v  -82.0 165.0 -225.0
v -130.0 165.0  -65.0
v -130.0   0.0  -65.0
v -240.0   0.0 -272.0
v -240.0 165.0 -272.0
v  -82.0 165.0 -225.0
v  -82.0   0.0 -225.0
v -423.0 230.0 -247.0
v -265.0 230.0 -296.0
v -314.0 230.0 -456.0
v -472.0 230.0 -406.0
v -423.0   0.0 -247.0
v -423.0 230.0 -247.0
v -472.0 230.0 -406.0
v -472.0   0.0 -406.0
v -472.0   0.0 -406.0
v -472.0 230.0 -406.0
v -314.0 230.0 -456.0
v -314.0   0.0 -456.0
v -314.0   0.0 -456.0
v -314.0 230.0 -456.0
v -265.0 230.0 -296.0
v -265.0   0.0 -296.0
v -265.0   0.0 -296.0
v -265.0 230.0 -296.0
v -423.0 230.0 -247.0
v -423.0   0.0 -247.0

v -343.0 548.8 -227.0
v -343.0 548.8 -332.0
v -213.0 548.8 -332.0
v -213.0 548.8 -227.0
v -343.0 568.8 -227.0
v -343.0 568.8 -332.0
v -213.0 568.8 -332.0
v -213.0 568.8 -227.0

vn  1.0  0.0  0.0
vn -1.0  0.0  0.0
vn  0.0  1.0  0.0
vn  0.0 -1.0  0.0
vn  0.0  0.0  1.0
vn  0.0  0.0 -1.0
vn -0.9534 0.0 -0.3017
vn -0.2928 0.0 0.9562
vn 0.9578 0.0 0.2873
vn 0.2851 0.0 -0.9585

vn 0.0 1.0 0.0
vn -0.9556 0.0 0.2945
vn -0.3017 0.0 -0.9534
vn 0.9562 0.0 -0.2928
vn 0.2962 0.0 0.9551

g floor
usemtl floor
f 1//3 2//3 3//3
f 3//3 4//3 1//3

g ceiling
usemtl ceiling
f 8//4 5//4 6//4
f 6//4 7//4 8//4
#f 61//4 5//4 8//4
#f 64//4 61//4 8//4
#f 7//4 64//4 8//4
#f 63//4 64//4 7//4
#f 6//4 63//4 7//4
#f 62//4 63//4 6//4
#f 5//4 62//4 6//4
#f 61//4 62//4 5//4

#g light
#f 62//5 63//5 67//5
#f 67//5 66//5 62//5

#f 68//2 64//2 63//2
#f 63//2 67//2 68//2

#f 64//6 61//6 65//6
#f 65//6 68//6 64//6

#f 61//1 62//1 66//1
#f 66//1 65//1 61//1

#f 68//4 67//4 66//4
#f 66//4 65//4 68//4

g back
usemtl back
f 9//5 10//5 11//5
f 11//5 12//5 9//5

g right
usemtl right
f 13//2 14//2 15//2
f 15//2 16//2 13//2

g left
usemtl left
f 17//1 18//1 19//1
f 19//1 20//1 17//1

g short
usemtl short
f 21//3 22//3 23//3
f 23//3 24//3 21//3
f 25//7 26//7 27//7
f 27//7 28//7 25//7
f 29//8 30//8 31//8
f 31//8 32//8 29//8
f 33//9 34//9 35//9
f 35//9 36//9 33//9
f 37//10 38//10 39//10
f 39//10 40//10 37//10

g tall
usemtl tall
f 41//11 42//11 43//11
f 43//11 44//11 41//11
f 45//12 46//12 47//12
f 47//12 48//12 45//12
f 49//13 50//13 51//13
f 51//13 52//13 49//13
f 53//14 54//14 55//14
f 55//14 56//14 53//14
f 57//15 58//15 59//15
f 59//15 60//15 57//15

group floor
usemtl floor

group ceiling
usemtl ceiling

group light
usemtl light

group back
usemtl back

group right
usemtl right

group left
usemtl left

group short
usemtl short

group tall
usemtl tall
